<svg width="1411" height="217" viewBox="0 0 1411 217" fill="none" xmlns="http://www.w3.org/2000/svg">
<path d="M1165.09 7.6021L1167.79 165.906H1166.44L1120.6 7.66089H1045.21V206.98H1095.04L1092.34 43.3291H1093.69L1142.82 206.98H1214.92V7.66089L1165.09 7.6021ZM216.088 7.6021L178.422 209.037H232.953L260.57 25.8182H261.922L288.894 209.037H342.719L305.699 7.66089L216.088 7.6021ZM520.532 7.6021L495.617 161.205H494.265L469.35 7.66089H387.26L383.206 209.037H433.741L435.092 27.8749H435.739L469.409 209.037H520.59L554.261 27.8749H555.612L556.964 209.037H607.499L602.798 7.66089L520.532 7.6021ZM93.5702 151.803C95.0476 156.603 95.2701 161.701 94.2165 166.611C92.865 173.31 88.1641 180.067 74.7077 180.067C61.8977 180.067 54.4937 172.663 54.4937 161.851V142.342H0.609375V157.855C0.609375 202.984 36.2776 216.441 74.0613 216.441C110.376 216.441 140.697 203.631 145.398 170.607C148.101 153.096 146.103 141.696 145.398 137.641C135.996 95.2156 59.1946 83.052 53.7886 59.4886C53.127 55.9346 53.127 52.2891 53.7886 48.7352C55.1401 41.9776 59.8998 35.22 72.0047 35.22C84.1095 35.22 90.8084 42.6828 90.8084 53.4361V65.541H141.343V51.4382C141.343 7.66088 101.62 0.90332 73.3562 0.90332C37.6292 0.90332 8.01333 13.0082 2.60727 45.3858C0.838816 54.2976 1.07971 63.4916 3.31241 72.2986C11.3627 114.019 83.4632 126.183 93.5702 151.744M748.879 151.744C750.877 156.445 750.172 162.556 749.525 166.611C748.174 173.31 743.473 180.067 730.017 180.067C717.206 180.067 709.803 172.663 709.803 161.851V142.342H655.918V157.855C655.918 202.279 690.94 215.736 728.665 215.736C765.038 215.736 794.654 203.631 799.355 169.96C802.058 152.449 800.06 141.696 799.355 136.936C791.305 95.2156 715.15 82.4056 709.803 59.4886C709.141 55.9346 709.141 52.2891 709.803 48.7352C711.154 41.9776 715.855 35.22 728.019 35.22C739.418 35.22 746.822 42.6828 746.822 53.4361V65.541H796.652V51.4382C796.652 7.66088 757.576 0.90332 729.311 0.90332C693.643 0.90332 664.674 12.3618 659.268 45.3858C657.916 54.1413 657.916 62.1916 659.973 72.2986C668.023 114.019 738.713 125.478 748.879 151.744ZM918.582 178.716C932.685 178.716 936.798 169.314 938.091 163.908C938.796 161.851 938.796 158.502 938.796 156.504V7.6021H989.919V152.391C989.919 156.445 989.919 163.849 989.331 165.906C985.923 203.572 956.307 215.677 919.229 215.677C882.209 215.677 852.593 203.572 849.185 165.847C849.185 163.849 848.539 156.445 848.539 152.391V7.6021H899.661V156.445C899.661 159.148 899.661 161.792 900.366 163.849C900.366 169.196 904.48 178.657 918.582 178.657M1338.84 176.659C1353.65 176.659 1358.35 167.257 1359.71 161.792C1360.35 159.795 1360.35 156.445 1360.35 154.388V125.419H1339.49V95.8032H1410.89V149.688C1410.89 153.742 1410.89 156.445 1410.24 163.203C1406.83 200.223 1375.16 212.974 1339.49 212.974C1303.82 212.974 1272.15 200.222 1268.8 163.144C1268.1 156.445 1268.1 153.742 1268.1 149.688V64.8358C1268.1 61.4864 1268.8 54.7289 1268.8 51.3207C1273.5 13.6546 1303.82 1.54968 1339.49 1.54968C1375.16 1.54968 1406.19 13.6545 1410.18 51.3794C1410.89 57.4319 1410.89 64.8358 1410.89 64.8358V71.5935H1360.35V60.1349C1360.35 60.1349 1360.35 55.434 1359.71 52.731C1359 48.0301 1355 37.923 1339.49 37.923C1324.68 37.923 1320.69 47.3249 1319.28 52.731C1318.63 55.3753 1318.63 58.7834 1318.63 62.1328V154.388C1318.63 157.091 1318.63 159.795 1319.28 161.792C1319.28 167.199 1324.68 176.659 1338.84 176.659Z" fill="white"/>
</svg>
