<svg width="1411" height="662" viewBox="0 0 1411 662" fill="none" xmlns="http://www.w3.org/2000/svg">
<path d="M709.121 0.367188C485.451 0.367188 304.23 89.8493 304.23 200.204C304.23 310.558 485.451 400.11 709.121 400.11C932.791 400.11 1113.94 310.628 1113.94 200.204C1113.94 89.7788 932.65 0.367188 709.121 0.367188ZM670.55 44.9319C750.395 32.986 831.972 41.8262 907.406 70.599C924.47 86.9582 831.251 139.562 720.332 162.267C561.888 194.21 637.267 71.8682 670.55 44.9319ZM398.296 281.647C363.039 256.826 295.134 185.678 408.238 111.709C449.374 86.2371 494.988 68.8389 542.638 60.445C562.593 56.2142 576.766 61.1502 558.997 76.0991C509.536 136.103 468.167 202.341 435.95 273.115C430.309 292.365 418.886 297.301 398.296 281.647ZM723.999 364.148C657.152 371.2 508.509 349.199 505.406 330.02C508.368 283.762 741.769 207.114 783.795 249.422C801.564 283.057 767.365 362.244 723.999 364.148ZM1064.02 229.749C1046.88 268.813 989.272 312.955 868.412 342.571C849.866 346.802 843.52 335.52 855.578 324.801C905.449 261.411 948.379 192.856 983.631 120.311C990.683 103.882 1004.22 110.369 1012.75 116.715C1033.03 126.746 1049.21 143.482 1058.56 164.084C1067.9 184.686 1069.83 207.886 1064.02 229.749ZM1357.07 487.759H1410.95V661.646H1357.07V487.759ZM1121.84 546.709V656.569H1182.55V612.921H1286.14V656.569H1346.14V487.336H1178.25C1162.93 487.834 1148.42 494.342 1137.87 505.453C1127.31 516.564 1121.55 531.385 1121.84 546.709ZM1181.85 547.414C1181.72 545.255 1182.07 543.096 1182.86 541.085C1183.65 539.073 1184.87 537.257 1186.43 535.762C1188 534.268 1189.86 533.129 1191.91 532.426C1193.95 531.723 1196.12 531.471 1198.28 531.689H1285.57V574.703H1182.06L1181.85 547.414ZM1055.91 488.112H899.015V656.569H1068.25C1092.15 656.569 1111.26 623.78 1111.61 610.171V532.606C1109.19 519.749 1102.24 508.188 1092.02 500.024C1081.79 491.859 1068.98 487.632 1055.91 488.112ZM1057.88 599.241C1057.8 601.933 1057.19 604.583 1056.08 607.037C1054.97 609.491 1053.39 611.703 1051.42 613.544C1049.46 615.385 1047.15 616.82 1044.62 617.766C1042.1 618.711 1039.42 619.15 1036.73 619.056H953.945V531.055H1035.46C1038.21 530.71 1041 530.942 1043.66 531.736C1046.31 532.531 1048.77 533.869 1050.88 535.667C1052.99 537.465 1054.7 539.682 1055.91 542.178C1057.11 544.674 1057.79 547.394 1057.88 550.164V599.241ZM844.437 488.112H665.05V656.922H724.422V531.478H805.584C823.988 531.478 828.783 540.01 828.783 554.324V656.64H882.655V527.317C883.137 522.133 882.487 516.907 880.75 511.999C879.014 507.091 876.233 502.618 872.598 498.89C868.964 495.162 864.564 492.268 859.702 490.407C854.84 488.546 849.631 487.763 844.437 488.112ZM599.542 590.357C599.934 593.688 599.662 597.065 598.741 600.291C597.82 603.517 596.269 606.528 594.178 609.151C592.086 611.773 589.495 613.956 586.555 615.571C583.615 617.187 580.384 618.203 577.048 618.562H490.457V488.112H436.585V655.864H615.972C629.581 655.864 653.485 643.595 653.485 622.44V488.112H599.542V590.357ZM321.929 552.843L266.012 488.112H212.844L294.64 586.267V656.569H348.583V591.062L429.745 488.112H377.212L321.929 552.843ZM152.766 548.119H55.2457V488.112H0.667969V655.864H54.5406V585.632H152.766V656.569H206.709V488.112H152.766V548.119Z" fill="white"/>
</svg>
