<svg width="1209" height="424" viewBox="0 0 1209 424" fill="none" xmlns="http://www.w3.org/2000/svg">
<path d="M1208.8 0.734375L324.452 377.278C251.118 408.338 189.536 423.868 139.706 423.868C83.2947 423.868 42.3799 404.107 16.9613 364.586C1.01173 339.201 -3.6892 307 2.85852 267.982C9.43981 228.964 26.8332 187.361 55.0388 143.172C78.5434 107.412 117.108 60.4025 170.732 2.14465C152.519 30.7772 139.176 62.229 131.244 95.2229C117.141 155.395 129.834 199.583 169.322 227.789C188.125 240.952 213.98 247.533 246.887 247.533C273.178 247.533 302.794 243.302 335.734 234.84L1208.8 0.734375Z" fill="white"/>
</svg>
