<svg width="1210" height="214" viewBox="0 0 1210 214" fill="none" xmlns="http://www.w3.org/2000/svg">
<path d="M431.177 0.899414C477.565 0.899414 514.686 12.4839 543.043 38.2718C562.434 55.8499 573.263 80.8823 572.961 107.124C572.913 120.075 570.237 132.882 565.094 144.769C559.952 156.656 552.45 167.375 543.043 176.277C516.499 200.655 475.148 213.65 431.228 213.65C387.308 213.65 346.611 200.655 319.665 176.277C309.929 167.611 302.176 156.948 296.935 145.014C291.694 133.08 289.087 120.156 289.293 107.124C289.293 81.0334 300.273 56.001 319.665 38.2718C344.848 15.4052 389.373 0.899414 431.177 0.899414ZM431.329 185.746C454.548 185.746 476.054 177.637 491.165 162.678C506.275 147.568 512.974 129.436 512.974 107.124C512.974 85.7679 505.519 65.7722 491.165 51.5687C476.357 36.9622 454.246 28.702 431.329 28.702C408.412 28.702 386.351 36.9119 371.392 51.5687C357.037 65.7722 349.532 85.7679 349.532 107.124C349.226 127.797 357.08 147.757 371.392 162.678C386.351 177.486 408.311 185.746 431.329 185.746ZM187.502 86.6242C195.56 88.6724 203.384 91.409 210.973 94.834C218.007 98.0871 224.456 102.478 230.062 107.829C239.984 118.204 245.625 132.106 245.474 146.46C245.582 154.03 243.911 161.52 240.596 168.326C237.28 175.132 232.412 181.065 226.385 185.646C215.701 193.712 203.583 199.677 190.675 203.224C171.232 209.348 150.916 212.24 130.537 211.786C112.807 211.786 103.036 209.721 89.5881 206.901L85.7099 206.095C70.8893 202.824 56.4177 198.135 42.4949 192.093C41.8723 191.671 41.1311 191.459 40.3795 191.488C39.275 191.515 38.2246 191.972 37.4528 192.763C36.681 193.553 36.2491 194.614 36.2494 195.719V205.944H6.6336V131.501H33.0259C33.2004 139.046 35.6011 146.37 39.9262 152.555C50.604 165.65 62.0877 170.687 73.0174 174.716C91.5021 180.76 110.893 183.984 130.234 184.588C158.087 184.588 174.356 177.839 177.882 176.378L178.335 176.177L178.637 176.076C181.76 174.918 194.352 170.334 194.352 156.332C194.352 142.532 182.566 139.51 174.86 137.545L173.751 137.293C165.189 134.976 145.445 132.861 123.888 130.595L116.232 129.789C96.0182 127.721 75.903 124.78 55.9429 120.974C30.8601 115.434 20.9882 106.267 14.8434 100.576L14.4405 100.173C5.48285 90.6217 0.510418 78.0104 0.539187 64.916C0.539187 39.9339 17.664 24.8238 38.7174 15.5562C61.6209 5.77851 86.2929 0.823538 111.196 1.00019C152.497 1.15129 186.091 14.5993 198.179 20.8448C203.065 23.4639 205.483 20.2404 205.483 17.8228V10.3181H232.026V75.1908H208.253C206.139 65.5558 200.94 56.8733 193.445 50.4606C188.884 46.8008 183.853 43.7686 178.486 41.4449C158.565 33.011 137.108 28.8089 115.477 29.105C93.1642 29.105 71.8086 33.3862 61.0804 39.9339C54.3983 44.0976 51.0405 49.235 51.007 55.3462C51.007 64.0597 58.3606 67.535 62.0877 68.5928C71.9597 71.6148 93.9197 73.7806 110.994 75.493L121.269 76.5508C137.739 78.2129 172.24 82.7963 187.502 86.6242ZM1102.52 36.4082V12.2824H1209.35V35.9549H1185.37C1176.71 35.9549 1173.18 37.617 1166.64 44.9706L1094.76 127.069C1094.01 128.083 1093.67 129.341 1093.81 130.595V167.967C1093.92 169.705 1094.12 171.437 1094.41 173.155C1094.84 174.25 1095.52 175.231 1096.39 176.018C1097.27 176.805 1098.31 177.376 1099.45 177.688C1101.62 177.998 1103.8 178.166 1105.99 178.191H1130.47V201.864H1000.83V178.191H1024C1026.19 178.166 1028.38 177.998 1030.55 177.688C1031.7 177.369 1032.77 176.797 1033.68 176.013C1034.58 175.229 1035.3 174.252 1035.78 173.155C1036.02 171.484 1036.17 169.803 1036.24 168.118V130.746C1036.24 129.486 1036.24 129.487 1034.57 127.522L963.507 46.8342C959.679 42.8552 953.131 36.4586 943.058 36.4586H919.99V12.786H1050.34V36.4586H1034.62C1031.1 36.4586 1028.68 39.9843 1031.7 43.8121L1075.98 96.7479C1076.43 97.3523 1076.73 97.3523 1077.34 96.899C1077.94 96.4457 1122.36 44.2654 1122.67 43.8121C1123.04 43.3329 1123.31 42.7837 1123.47 42.197C1123.63 41.6103 1123.66 40.998 1123.58 40.3967C1123.49 39.7954 1123.29 39.2172 1122.98 38.6964C1122.66 38.1756 1122.25 37.723 1121.76 37.3652C1120.88 36.7471 1119.82 36.4293 1118.74 36.4586L1102.52 36.4082ZM786.013 36.2571H810.441C821.572 36.2571 823.537 40.5383 823.688 50.9139L825.098 129.789L695.05 12.7357H602.123V36.4082H622.874C637.833 36.4082 638.891 44.6684 638.891 52.022V163.484C638.891 169.931 638.941 178.343 629.724 178.343H604.239V201.864H713.233V178.191H686.639C675.961 178.191 675.558 173.306 675.357 162.93V68.1394L825.098 201.662H863.226L861.211 50.7628C861.413 39.7828 862.168 36.106 873.45 36.106H897.274V12.4335H786.013V36.2571Z" fill="white"/>
</svg>
