<?xml version="1.0" standalone="no"?>
<!DOCTYPE svg PUBLIC "-//W3C//DTD SVG 20010904//EN"
 "http://www.w3.org/TR/2001/REC-SVG-20010904/DTD/svg10.dtd">
<svg version="1.0" xmlns="http://www.w3.org/2000/svg"
 width="944.000000pt" height="944.000000pt" viewBox="0 0 944.000000 944.000000"
 preserveAspectRatio="xMidYMid meet">
<metadata>
Created by potrace 1.14, written by Peter Selinger 2001-2017
</metadata>
<g transform="translate(0.000000,944.000000) scale(0.100000,-0.100000)"
fill="#000000" stroke="none">
<path d="M1400 7276 c-3 -2 -75 -25 -160 -49 -85 -25 -234 -69 -330 -97 -96
-28 -220 -64 -275 -80 -55 -16 -163 -47 -240 -70 -77 -23 -197 -58 -267 -78
l-128 -36 0 -501 0 -500 624 -624 c343 -343 625 -619 628 -615 2 5 4 323 4
706 -1 461 2 699 9 701 5 2 82 3 170 3 l160 -1 0 -1182 c0 -651 3 -1183 6
-1183 4 0 286 278 626 618 l619 617 0 980 -1 979 -90 27 c-125 38 -265 80
-435 129 -80 23 -237 68 -350 102 -113 33 -216 62 -229 64 -14 3 -28 7 -33 10
-4 3 -16 7 -25 9 -10 2 -63 17 -118 33 -115 34 -159 45 -165 38z"/>
<path d="M7768 5428 c-77 -10 -139 -41 -188 -94 -59 -64 -78 -113 -83 -219 -8
-132 90 -259 228 -297 114 -32 221 -4 308 80 42 41 46 58 15 68 -12 3 -28 13
-36 21 -12 12 -20 8 -57 -26 -50 -46 -95 -61 -165 -56 -88 7 -170 73 -187 151
-10 44 -5 137 8 144 6 4 10 9 9 11 -6 13 27 58 58 80 93 66 211 58 286 -20
l29 -30 38 22 c22 12 39 25 39 29 0 5 -16 26 -36 47 -63 71 -160 103 -266 89z"/>
<path d="M9068 5430 c-54 -10 -128 -63 -128 -93 0 -9 -4 -19 -10 -22 -13 -8
-4 -108 11 -134 12 -17 8 -24 -27 -58 -49 -46 -69 -98 -61 -164 11 -87 78
-145 177 -152 59 -5 136 12 171 37 22 15 25 14 55 -15 l31 -30 37 21 c20 12
36 25 36 29 0 4 -16 24 -35 43 l-36 35 20 46 c33 76 31 86 -16 114 -36 21 -43
22 -44 9 -1 -9 -2 -19 -4 -23 -13 -51 -18 -63 -24 -63 -6 0 -139 142 -173 185
-23 29 -29 71 -15 102 25 55 124 48 163 -12 l16 -25 39 22 c22 12 39 27 39 34
0 16 -70 89 -95 99 -38 15 -90 21 -127 15z m65 -472 l27 -32 -22 -12 c-53 -27
-123 -21 -159 15 -41 41 -40 91 1 133 l31 30 48 -50 c26 -28 60 -66 74 -84z"/>
<path d="M5730 5424 c0 -1 -69 -191 -100 -274 -31 -83 -120 -331 -120 -334 0
0 24 -1 53 -1 l54 0 22 61 22 61 129 1 129 0 17 -51 c9 -29 20 -57 25 -62 5
-8 96 -13 106 -6 0 1 -10 31 -24 69 -13 37 -31 87 -39 112 -8 25 -19 54 -24
65 -11 27 -41 110 -86 235 -20 58 -40 109 -44 113 -6 6 -120 17 -120 11z m98
-226 c18 -51 35 -102 38 -113 13 -50 14 -50 -80 -53 l-89 -2 7 31 c3 17 12 45
20 62 8 18 24 62 37 100 12 37 25 67 28 67 3 0 21 -42 39 -92z"/>
<path d="M6169 5422 l-25 -3 1 -297 c1 -163 3 -299 4 -303 2 -10 297 -2 317 9
10 5 21 10 24 9 3 0 23 10 46 23 40 23 105 103 118 147 53 171 -15 334 -164
393 -42 17 -79 21 -174 23 -67 1 -133 1 -147 -1z m291 -110 c34 -14 76 -56 96
-95 23 -44 23 -151 0 -196 -43 -82 -93 -107 -220 -109 l-92 -2 2 202 c1 112 2
206 3 210 2 11 182 2 211 -10z"/>
<path d="M6723 5422 c-29 -3 -31 -5 -23 -30 10 -33 114 -327 128 -362 5 -14
10 -29 11 -35 2 -18 54 -160 62 -169 4 -5 32 -9 63 -11 l55 -2 14 41 c81 227
182 519 191 552 6 19 2 20 -45 18 -28 -2 -53 -5 -56 -7 -3 -4 -111 -317 -117
-342 -9 -39 -41 -125 -45 -125 -6 0 -127 354 -137 400 -15 69 -29 79 -101 72z"/>
<path d="M7328 5422 c-13 -3 -15 -41 -16 -302 0 -220 3 -299 11 -302 10 -4 69
-3 87 1 7 1 3 591 -4 598 -6 7 -54 10 -78 5z"/>
<path d="M8195 5422 c-20 -3 -20 -10 -19 -292 1 -159 4 -295 7 -303 4 -10 43
-12 173 -11 93 1 174 2 180 3 7 1 12 19 11 46 l0 45 -134 0 c-148 0 -135 -7
-135 75 0 19 0 47 1 63 l1 28 120 -1 120 -1 0 48 0 48 -120 0 c-89 0 -120 3
-121 13 -1 6 -1 41 -2 77 l0 65 132 0 c109 0 131 2 132 15 0 8 2 28 3 43 1 16
-3 31 -8 34 -9 6 -304 10 -341 5z"/>
<path d="M3529 5408 c-1 -2 -2 -312 -3 -691 l-1 -687 33 -1 c41 -1 84 -1 122
0 l30 1 0 690 0 690 -90 0 c-49 0 -90 -1 -91 -2z"/>
<path d="M3934 4720 l0 -690 30 -1 c17 -1 58 -1 91 -2 l60 -1 0 247 0 247 50
1 c305 3 372 6 420 23 231 82 353 334 274 568 -24 73 -61 129 -122 185 -51 47
-87 67 -164 93 -48 16 -95 18 -347 19 l-292 2 0 -691z m606 498 c51 -22 97
-64 128 -117 24 -40 27 -56 26 -126 0 -44 -3 -91 -7 -104 -16 -61 -96 -142
-160 -163 -45 -15 -407 -18 -408 -4 -1 14 -1 531 0 532 1 1 88 1 194 0 147 -2
200 -6 227 -18z"/>
<path d="M5159 5383 c-3 -175 1 -1366 5 -1370 3 -3 21 -6 41 -7 l35 -1 0 50
c1 72 1 1273 0 1318 0 37 0 37 -40 37 -37 0 -40 -2 -41 -27z"/>
<path d="M0 4396 l0 -984 626 -623 c344 -343 626 -625 627 -626 1 -1 2 442 2
983 l0 985 -624 624 c-343 344 -626 625 -628 625 -1 0 -3 -443 -3 -984z"/>
<path d="M5668 4627 c-20 -5 -54 -24 -76 -43 -53 -45 -65 -90 -48 -176 9 -49
63 -86 182 -128 94 -32 134 -61 134 -95 0 -53 -61 -88 -137 -78 -53 7 -89 28
-110 63 -19 33 -34 38 -53 15 -7 -8 -18 -15 -26 -15 -38 0 -22 -45 36 -101 39
-36 105 -62 165 -64 49 -1 124 22 161 50 44 34 62 76 59 143 -4 80 -53 125
-185 167 -86 27 -116 44 -128 70 -23 50 15 97 81 101 49 3 72 -8 109 -48 29
-32 45 -32 86 0 l23 18 -30 41 c-49 68 -153 103 -243 80z"/>
<path d="M8047 4628 c-71 -15 -187 -92 -187 -125 0 -7 -4 -13 -10 -13 -17 0
-49 -124 -46 -181 6 -122 73 -226 173 -271 56 -25 76 -29 143 -29 66 0 107 12
166 46 39 23 103 90 93 99 -2 2 -22 13 -45 24 l-41 21 -21 -28 c-49 -67 -170
-85 -258 -40 -72 37 -108 100 -108 188 0 104 37 161 126 201 83 36 182 14 246
-54 l23 -25 39 25 c45 30 43 40 -12 89 -78 69 -176 95 -281 73z"/>
<path d="M9095 4632 c-98 -18 -165 -104 -151 -194 12 -77 52 -111 178 -154
111 -37 127 -46 138 -77 11 -34 -9 -82 -37 -91 -73 -22 -152 -8 -187 34 -13
16 -26 35 -28 42 -3 9 -15 6 -44 -9 -45 -24 -48 -47 -11 -94 51 -66 180 -98
282 -70 44 12 118 67 110 82 -4 5 -2 9 3 9 5 0 9 6 10 13 0 6 3 30 5 53 10 87
-44 142 -183 188 -99 33 -126 49 -134 82 -17 67 39 99 148 85 5 0 24 -17 42
-36 l33 -36 41 21 c47 24 45 35 -17 95 -45 44 -134 70 -198 57z"/>
<path d="M6060 4622 c-6 -2 -10 -110 -10 -303 l0 -299 25 -1 c14 0 90 -1 170
-1 80 0 151 1 159 1 15 1 27 64 15 83 -5 7 -50 11 -138 11 l-131 0 0 77 c0 53
4 79 13 82 6 3 60 4 120 4 59 -1 107 1 108 4 1 3 2 24 3 48 l2 42 -123 0 -123
0 0 80 0 80 133 0 133 0 -2 43 c-1 23 -2 44 -3 47 -1 5 -335 7 -351 2z"/>
<path d="M6535 4620 c-1 -3 -2 -139 -2 -302 0 -265 2 -298 16 -299 9 0 26 -2
38 -3 42 -5 47 7 47 116 l1 103 59 0 59 0 53 -90 c29 -49 53 -95 53 -102 2
-22 121 -40 121 -18 0 6 -29 59 -65 120 -55 94 -62 111 -47 116 27 10 72 60
88 97 44 106 -19 232 -129 259 -29 7 -288 10 -292 3z m304 -119 c25 -24 31
-37 31 -71 0 -51 -42 -100 -87 -101 -39 -1 -126 -1 -139 0 -6 1 -10 38 -11
101 l0 100 87 0 c83 0 90 -2 119 -29z"/>
<path d="M7000 4620 c-8 -5 -8 -14 -1 -31 11 -29 24 -62 26 -69 5 -20 28 -89
35 -105 5 -11 16 -40 24 -65 46 -142 109 -316 116 -324 12 -12 110 -13 119 -1
5 5 26 64 49 130 22 66 68 198 101 293 34 96 61 175 61 175 0 1 -24 2 -54 2
l-54 0 -51 -150 c-29 -82 -53 -154 -54 -160 -13 -48 -53 -165 -57 -165 -3 0
-12 21 -19 48 -8 26 -18 54 -22 62 -4 8 -31 87 -59 175 -28 87 -55 166 -60
174 -9 16 -79 24 -100 11z"/>
<path d="M7605 4619 c-3 -3 -4 -28 -5 -55 0 -27 0 -62 0 -79 -1 -53 -1 -320
-1 -335 1 -8 1 -41 1 -72 1 -53 3 -58 23 -59 27 -1 71 2 75 6 6 5 3 587 -3
593 -8 8 -85 9 -90 1z"/>
<path d="M8479 4614 c-5 -6 -6 -14 -3 -17 9 -9 10 -168 2 -174 -5 -2 -5 -10
-1 -16 8 -13 6 -115 -3 -129 -3 -4 -2 -8 3 -8 9 0 9 -162 0 -176 -3 -6 -2 -16
2 -23 5 -7 6 -22 4 -32 -4 -15 0 -19 23 -20 35 -1 326 -1 337 0 4 1 7 22 5 48
l-3 47 -130 1 -130 0 0 80 0 80 110 1 c61 1 115 2 120 3 9 1 11 31 6 86 -1 6
-46 9 -120 7 l-118 -3 -1 80 -1 81 133 0 132 0 -1 40 c-1 22 -3 43 -3 48 -3
12 -352 9 -363 -4z"/>
<path d="M2218 3800 l-623 -620 0 -505 c-1 -278 2 -504 7 -503 4 2 287 281
628 622 l620 619 0 503 c0 277 -2 504 -5 504 -3 0 -285 -279 -627 -620z"/>
<path d="M4706 4255 c-21 -7 -39 -15 -40 -17 -1 -1 -12 -16 -24 -32 -37 -48
-27 -120 23 -172 5 -6 29 -15 52 -21 73 -18 150 32 158 103 10 97 -78 170
-169 139z"/>
</g>
</svg>
